<svg xmlns="http://www.w3.org/2000/svg" version="1.1" xmlns:xlink="http://www.w3.org/1999/xlink" xmlns:svgjs="http://svgjs.dev/svgjs" width="1000" height="623" viewBox="0 0 1000 623"><g transform="matrix(1,0,0,1,-0.6060606060606233,123.49130446964222)"><svg viewBox="0 0 396 247" data-background-color="#046380" preserveAspectRatio="xMidYMid meet" height="623" width="1000" xmlns="http://www.w3.org/2000/svg" xmlns:xlink="http://www.w3.org/1999/xlink"><g id="tight-bounds" transform="matrix(1,0,0,1,0.2400000000000091,-0.09999999999999432)"><svg viewBox="0 0 395.52 247.2" height="247.2" width="395.52"><g><svg></svg></g><g><svg viewBox="0 0 395.52 247.2" height="247.2" width="395.52"><g transform="matrix(1,0,0,1,75.54432,57.105021473684204)"><svg viewBox="0 0 244.43135999999998 132.98995705263158" height="132.98995705263158" width="244.43135999999998"><g><svg viewBox="0 0 244.43135999999998 132.98995705263158" height="132.98995705263158" width="244.43135999999998"><g><svg viewBox="0 0 244.43135999999998 132.98995705263158" height="132.98995705263158" width="244.43135999999998"><g><svg viewBox="0 0 244.43135999999998 132.98995705263158" height="132.98995705263158" width="244.43135999999998"><g id="textblocktransform"><svg viewBox="0 0 244.43135999999998 132.98995705263158" height="132.98995705263158" width="244.43135999999998" id="textblock"><g><svg viewBox="0 0 244.43135999999998 132.98995705263158" height="132.98995705263158" width="244.43135999999998"><g transform="matrix(1,0,0,1,0,0)"><svg width="244.43135999999998" viewBox="-2.75 -37.95000076293945 77 42.35000228881836" height="132.98995705263158" data-palette-color="#ffffff"><path d="M28.2-12.25L26.95 0.4 4.95-29.05Q4.5-29.8 3.83-30.08 3.15-30.35 1.65-30.5L1.65-30.5Q1.45-31.25 1.35-32.15 1.25-33.05 1.25-33.95L1.25-33.95Q1.9-33.9 3-33.88 4.1-33.85 5.25-33.83 6.4-33.8 7.15-33.8L7.15-33.8Q8.35-33.8 9.83-33.83 11.3-33.85 12.25-33.95L12.25-33.95 28.2-12.25ZM1.25 0.15L1.25 0.15Q1.25-0.9 1.33-1.75 1.4-2.6 1.65-3.3L1.65-3.3Q3.15-3.45 3.98-4.05 4.8-4.65 5.18-6.15 5.55-7.65 5.55-10.5L5.55-10.5 5.55-30.7 9-30.4 9-10.5Q9-7.65 9.3-6.15 9.6-4.65 10.43-4.05 11.25-3.45 12.8-3.3L12.8-3.3Q13-2.6 13.05-1.68 13.1-0.75 13.1 0.15L13.1 0.15Q12.4 0.1 11.35 0.08 10.3 0.05 9.25 0.03 8.2 0 7.35 0L7.35 0Q6.55 0 5.33 0.03 4.1 0.05 3 0.08 1.9 0.1 1.25 0.15ZM26.95 0.4L26.95 0.4 27.45-7.9 27.45-23.35Q27.45-26.2 27.15-27.68 26.85-29.15 25.98-29.75 25.1-30.35 23.4-30.5L23.4-30.5Q23.2-31.35 23.13-32.27 23.05-33.2 23.05-33.95L23.05-33.95Q23.8-33.9 24.9-33.88 26-33.85 27.18-33.83 28.35-33.8 29.15-33.8L29.15-33.8Q30.4-33.8 31.9-33.85 33.4-33.9 34.3-33.95L34.3-33.95Q34.3-33.1 34.25-32.25 34.2-31.4 34-30.5L34-30.5Q32.75-30.4 32.08-29.8 31.4-29.2 31.15-27.73 30.9-26.25 30.9-23.35L30.9-23.35 30.9 0Q30.05 0.25 29.1 0.33 28.15 0.4 26.95 0.4ZM64.15-12.25L62.9 0.4 40.9-29.05Q40.45-29.8 39.77-30.08 39.1-30.35 37.6-30.5L37.6-30.5Q37.4-31.25 37.3-32.15 37.2-33.05 37.2-33.95L37.2-33.95Q37.85-33.9 38.95-33.88 40.05-33.85 41.2-33.83 42.35-33.8 43.1-33.8L43.1-33.8Q44.3-33.8 45.77-33.83 47.25-33.85 48.2-33.95L48.2-33.95 64.15-12.25ZM37.2 0.15L37.2 0.15Q37.2-0.9 37.27-1.75 37.35-2.6 37.6-3.3L37.6-3.3Q39.1-3.45 39.92-4.05 40.75-4.65 41.12-6.15 41.5-7.65 41.5-10.5L41.5-10.5 41.5-30.7 44.95-30.4 44.95-10.5Q44.95-7.65 45.25-6.15 45.55-4.65 46.37-4.05 47.2-3.45 48.75-3.3L48.75-3.3Q48.95-2.6 49-1.68 49.05-0.75 49.05 0.15L49.05 0.15Q48.35 0.1 47.3 0.08 46.25 0.05 45.2 0.03 44.15 0 43.3 0L43.3 0Q42.5 0 41.27 0.03 40.05 0.05 38.95 0.08 37.85 0.1 37.2 0.15ZM62.9 0.4L62.9 0.4 63.4-7.9 63.4-23.35Q63.4-26.2 63.1-27.68 62.8-29.15 61.92-29.75 61.05-30.35 59.35-30.5L59.35-30.5Q59.15-31.35 59.07-32.27 59-33.2 59-33.95L59-33.95Q59.75-33.9 60.85-33.88 61.95-33.85 63.12-33.83 64.3-33.8 65.1-33.8L65.1-33.8Q66.35-33.8 67.85-33.85 69.35-33.9 70.25-33.95L70.25-33.95Q70.25-33.1 70.2-32.25 70.15-31.4 69.95-30.5L69.95-30.5Q68.7-30.4 68.02-29.8 67.35-29.2 67.1-27.73 66.85-26.25 66.85-23.35L66.85-23.35 66.85 0Q66 0.25 65.05 0.33 64.1 0.4 62.9 0.4Z" opacity="1" transform="matrix(1,0,0,1,0,0)" fill="#ffffff" class="undefined-text-0" data-fill-palette-color="primary" id="text-0"></path></svg></g></svg></g></svg></g></svg></g><g></g></svg></g></svg></g></svg></g><g><path d="M117.97 31.024A122.216 122.216 0 0 1 277.55 31.024L267.587 31.024A112.253 112.253 0 0 0 127.933 31.024L117.97 31.024M117.97 216.176A122.216 122.216 0 0 0 277.55 216.176L267.587 216.176A112.253 112.253 0 0 1 127.933 216.176L117.97 216.176" fill="#ffffff" stroke="transparent" data-fill-palette-color="tertiary"></path></g></svg></g><defs></defs></svg><rect width="395.52" height="247.2" fill="none" stroke="none" visibility="hidden"></rect></g></svg></g></svg>